<?xml version="1.0" encoding="utf-8"?>
<!-- Generator: Adobe Illustrator 16.0.0, SVG Export Plug-In . SVG Version: 6.00 Build 0)  -->
<!DOCTYPE svg PUBLIC "-//W3C//DTD SVG 1.1//EN" "http://www.w3.org/Graphics/SVG/1.1/DTD/svg11.dtd">
<svg version="1.1" id="Layer_1" xmlns="http://www.w3.org/2000/svg" xmlns:xlink="http://www.w3.org/1999/xlink" x="0px" y="0px"
	 width="100px" height="100px" viewBox="-20 0 100 100" enable-background="new -20 0 100 100" xml:space="preserve">
<g id="그룹_4963" transform="translate(-1343 -1049)">
	<rect id="사각형_1849" x="1343" y="1059" fill="none" width="60" height="60"/>
	<g id="그룹_4955" transform="translate(-105.957 1569.125)">
		<path id="패스_734" fill="#FFFFFF" d="M1470.154-460.334c0.497,0,0.9-0.402,0.9-0.898l0,0v-38.693c0-0.497-0.403-0.9-0.9-0.9
			l0,0h-7.649c-0.497,0-0.9,0.403-0.9,0.9l0,0v38.693c0,0.496,0.403,0.898,0.9,0.898l0,0H1470.154z M1463.405-499.025h5.849v36.893
			h-5.849V-499.025z"/>
		<path id="패스_735" fill="#FFFFFF" d="M1476-493.627h13.048c0.497,0,0.899-0.402,0.899-0.899l0,0v-5.4
			c0-0.497-0.402-0.9-0.899-0.9l0,0H1476c-0.497,0-0.9,0.403-0.9,0.9l0,0v5.4C1475.1-494.029,1475.503-493.627,1476-493.627
			L1476-493.627z M1476.9-499.026h11.249v3.6H1476.9V-499.026z"/>
		<path id="패스_736" fill="#FFFFFF" d="M1475.1-483.729c0,0.496,0.403,0.898,0.9,0.898l0,0h13.048
			c0.497,0,0.899-0.402,0.899-0.898l0,0v-5.4c0-0.497-0.402-0.899-0.899-0.899l0,0H1476c-0.497,0-0.9,0.402-0.9,0.899l0,0V-483.729z
			 M1476.9-488.229h11.249v3.6H1476.9V-488.229z"/>
		<path id="패스_737" fill="#FFFFFF" d="M1475.1-472.932c0,0.498,0.403,0.9,0.9,0.9l0,0h13.048c0.497,0,0.899-0.402,0.899-0.9l0,0
			v-5.4c0-0.496-0.402-0.898-0.899-0.898l0,0H1476c-0.497,0-0.9,0.402-0.9,0.898l0,0V-472.932z M1476.9-477.432h11.249v3.6H1476.9
			V-477.432z"/>
		<path id="패스_738" fill="#FFFFFF" d="M1475.1-462.133c0,0.496,0.403,0.9,0.9,0.9l0,0h13.048c0.497,0,0.899-0.404,0.899-0.9l0,0
			v-5.4c0-0.498-0.402-0.9-0.899-0.9l0,0H1476c-0.497,0-0.9,0.402-0.9,0.9l0,0V-462.133z M1476.9-466.633h11.249v3.6H1476.9
			V-466.633z"/>
		<path id="패스_739" fill="#FFFFFF" d="M1503.9-501.726h-6.4c-0.52-3.112-3.211-5.396-6.367-5.4h-30.717
			c-3.567,0.005-6.458,2.896-6.462,6.463v39.878c0,0.498,0.403,0.9,0.9,0.9l0,0c0.497,0,0.9-0.402,0.9-0.9l0,0v-39.878
			c0.003-2.573,2.089-4.659,4.663-4.663h30.718c2.573,0.003,4.66,2.089,4.662,4.663v39.878c0,0.498,0.402,0.9,0.9,0.9l0,0
			c0.496,0,0.9-0.402,0.9-0.9l0,0v-16.645h6.299c0.498,0,0.9-0.404,0.9-0.9l0,0v-22.5
			C1504.795-501.324,1504.395-501.725,1503.9-501.726z M1503-479.227h-5.4v-20.699h5.4V-479.227z"/>
		<path id="패스_740" fill="#FFFFFF" d="M1503.9-456.285h-49.042c-0.497,0-0.9,0.404-0.9,0.9l0,0c0,0.498,0.403,0.9,0.9,0.9l0,0
			h49.042c0.496,0,0.9-0.402,0.9-0.9l0,0C1504.801-455.881,1504.396-456.285,1503.9-456.285L1503.9-456.285z"/>
	</g>
</g>
<g>
	<path fill="#FFFFFF" d="M29.503,84.659v1.278h-9.989v-1.278h4.175v-1.267c-1.83-0.168-2.955-0.933-2.955-2.115
		c0-1.35,1.448-2.15,3.732-2.15c2.309,0,3.745,0.801,3.745,2.15c0,1.183-1.113,1.936-2.943,2.115v1.267H29.503z M29.037,78.661
		h-9.092v-1.255h3.744V76.14h1.579v1.267h3.769V78.661z M24.467,82.197c1.388,0,2.13-0.286,2.13-0.92
		c0-0.621-0.742-0.932-2.13-0.932c-1.363,0-2.105,0.311-2.105,0.932C22.361,81.911,23.104,82.197,24.467,82.197z"/>
	<path fill="#FFFFFF" d="M35.61,81.409c-1.268,0.215-2.356,0.251-3.911,0.251h-0.754v-5.019h4.139v1.219H32.44v0.682h2.261v1.146
		H32.44v0.753c1.137-0.012,2.021-0.072,3.038-0.228L35.61,81.409z M40.252,85.77v1.184H32.44v-2.916h5.909v-0.585h-5.934v-1.195
		h7.489v2.88h-5.909v0.633H40.252z M36.244,79.593h-1.076v-1.242h1.076v-2.139h1.472v5.579h-1.472V79.593z M39.905,81.863H38.41
		v-5.818h1.495V81.863z"/>
</g>
</svg>
