<?xml version="1.0" encoding="utf-8"?>
<!-- Generator: Adobe Illustrator 16.0.0, SVG Export Plug-In . SVG Version: 6.00 Build 0)  -->
<!DOCTYPE svg PUBLIC "-//W3C//DTD SVG 1.1//EN" "http://www.w3.org/Graphics/SVG/1.1/DTD/svg11.dtd">
<svg version="1.1" id="Layer_1" xmlns="http://www.w3.org/2000/svg" xmlns:xlink="http://www.w3.org/1999/xlink" x="0px" y="0px"
	 width="100px" height="100px" viewBox="-20 0 100 100" enable-background="new -20 0 100 100" xml:space="preserve">
<g id="Group_5399" transform="translate(-871 -1049)">
	<rect id="Rectangle_1843" x="871" y="1059" fill="none" width="60" height="60"/>
	<g id="Group_5402" transform="translate(558.47 59.5)">
		<g id="Group_5401" transform="translate(318 992.5)">
			
				<rect id="Rectangle_2474" x="0.001" y="10.5" fill="none" stroke="#FFFFFF" stroke-width="2" stroke-linecap="round" stroke-linejoin="round" width="49.059" height="34.344"/>
			
				<rect id="Rectangle_2475" x="5.001" y="15.5" fill="none" stroke="#FFFFFF" stroke-width="2" stroke-linecap="round" stroke-linejoin="round" width="39.059" height="24.344"/>
			<g id="Group_5400" transform="translate(6.863)">
				<path id="Path_2467" fill="none" stroke="#FFFFFF" stroke-width="2" stroke-linecap="round" stroke-linejoin="round" d="M0,10"
					/>
				<path id="Path_2468" fill="none" stroke="#FFFFFF" stroke-width="2" stroke-linecap="round" stroke-linejoin="round" d="
					M35.335,10"/>
			</g>
			<path id="Rectangle_2476" fill="none" stroke="#FFFFFF" stroke-width="2" stroke-linecap="round" stroke-linejoin="round" d="
				M12.541,27.845h10c2.21,0,4,1.791,4,4v3.999c0,2.211-1.79,4-4,4h-10c-2.209,0-4-1.789-4-4v-3.999
				C8.541,29.636,10.332,27.845,12.541,27.845z"/>
			
				<line id="Line_467" fill="none" stroke="#FFFFFF" stroke-width="2" stroke-linecap="round" stroke-linejoin="round" x1="14.38" y1="39.844" x2="14.38" y2="27.845"/>
			
				<line id="Line_468" fill="none" stroke="#FFFFFF" stroke-width="2" stroke-linecap="round" stroke-linejoin="round" x1="19.454" y1="39.844" x2="19.454" y2="27.845"/>
		</g>
		
			<line id="Line_469" fill="none" stroke="#FFFFFF" stroke-width="2" stroke-linecap="round" stroke-linejoin="round" x1="336.056" y1="1037.344" x2="325.691" y2="1055.473"/>
		
			<line id="Line_470" fill="none" stroke="#FFFFFF" stroke-width="2" stroke-linecap="round" stroke-linejoin="round" x1="349.194" y1="1037.344" x2="359.559" y2="1055.473"/>
	</g>
</g>
<g>
	<path fill="#FFFFFF" d="M23.007,78.947c0,1.841,0.539,3.692,2.13,4.624l-0.921,1.147c-0.981-0.574-1.603-1.529-1.962-2.688
		c-0.383,1.255-1.029,2.33-2.022,2.951l-0.933-1.159c1.603-1.016,2.177-2.986,2.177-4.875V78.41h-1.771v-1.278h4.905v1.278h-1.604
		V78.947z M25.244,76.212h1.472v10.322h-1.472v-5.472h-1.399v-1.278h1.399V76.212z M28.965,76.021v11.004h-1.496V76.021H28.965z"/>
	<path fill="#FFFFFF" d="M40.491,84.479v1.278h-9.978v-1.278h4.199v-2.426h1.579v2.426H40.491z M30.909,81.289
		c2.309-0.358,3.588-1.732,3.732-3.166h-3.303v-1.254h8.303v1.254H36.34c0.144,1.434,1.424,2.76,3.792,3.106l-0.598,1.243
		c-1.938-0.347-3.338-1.267-4.031-2.558c-0.683,1.314-2.07,2.271-3.984,2.617L30.909,81.289z"/>
</g>
</svg>
