<?xml version="1.0" encoding="utf-8"?>
<!-- Generator: Adobe Illustrator 16.0.0, SVG Export Plug-In . SVG Version: 6.00 Build 0)  -->
<!DOCTYPE svg PUBLIC "-//W3C//DTD SVG 1.1//EN" "http://www.w3.org/Graphics/SVG/1.1/DTD/svg11.dtd">
<svg version="1.1" id="Layer_1" xmlns="http://www.w3.org/2000/svg" xmlns:xlink="http://www.w3.org/1999/xlink" x="0px" y="0px"
	 width="100px" height="100px" viewBox="-20 0 100 100" enable-background="new -20 0 100 100" xml:space="preserve">
<g id="그룹_4961" transform="translate(-1107 -1049)">
	<rect id="사각형_1846" x="1107" y="1059" fill="none" width="60" height="60"/>
	<g id="그룹_4953" transform="translate(-34.622 1570.14)">
		<path id="패스_727" fill="#FFFFFF" d="M1191.017-481.369h-3.776l0.015-4.631h7.346c0.498,0,0.9-0.403,0.9-0.9l0,0v-6.244h-1.8
			v5.344h-6.44l0.027-8.533c0.008-1.358-0.529-2.662-1.49-3.62c-0.957-0.963-2.258-1.504-3.615-1.5h-20.8
			c-1.356-0.003-2.658,0.538-3.613,1.5c-0.96,0.957-1.498,2.258-1.493,3.614l0.009,8.543h-6.227v-5.98h-1.8v6.881
			c0,0.497,0.403,0.9,0.9,0.9l0,0h7.129l0.005,4.631h-3.737c-3,0-4.934,2.289-4.934,5.834v16.051h5.1
			c0.445,2.881,2.923,5.01,5.839,5.016c2.916-0.006,5.394-2.134,5.84-5.016h14.765c0.445,2.881,2.924,5.01,5.839,5.016
			c2.916-0.006,5.394-2.134,5.839-5.016h5.1v-16.051C1195.951-479.079,1194.015-481.369,1191.017-481.369z M1158.564-456.269
			c-1.924-0.003-3.59-1.338-4.013-3.215h8.027C1162.155-457.607,1160.489-456.272,1158.564-456.269L1158.564-456.269z
			 M1185.009-456.269c-1.926-0.003-3.591-1.338-4.014-3.215h8.025C1188.599-457.607,1186.933-456.272,1185.009-456.269
			L1185.009-456.269z M1194.151-461.285h-44.729v-3.699h44.729V-461.285z M1149.422-466.779v-8.756c0-0.947,0.226-4.034,3.134-4.034
			h5.538l-0.018-16.775c-0.003-0.878,0.345-1.721,0.968-2.341c0.619-0.623,1.461-0.972,2.339-0.969h20.799
			c0.879-0.002,1.723,0.348,2.342,0.971c0.622,0.621,0.97,1.466,0.965,2.345l-0.053,16.77h5.582c2.908,0,3.133,3.087,3.133,4.034
			v8.756H1149.422z"/>
		<path id="패스_728" fill="#FFFFFF" d="M1181.373-495.527H1162.2c-0.497,0-0.9,0.403-0.9,0.899c0,0,0,0,0,0v10.965
			c0,0.498,0.403,0.9,0.9,0.9l0,0h19.173c0.497,0,0.899-0.402,0.899-0.9l0,0v-10.965
			C1182.272-495.124,1181.87-495.527,1181.373-495.527z M1180.474-484.561H1163.1v-9.166h17.374V-484.561z"/>
		<path id="패스_729" fill="#FFFFFF" d="M1150.059-501.236c-0.053-2.209,1.691-4.045,3.9-4.105h35.851
			c2.209,0.06,3.953,1.896,3.899,4.105v2.855h1.8v-2.855c0.051-3.202-2.498-5.84-5.699-5.9h-35.85c-3.201,0.061-5.75,2.699-5.7,5.9
			v2.855h1.8V-501.236z"/>
		<path id="패스_730" fill="#FFFFFF" d="M1156.541-476.8c-2.128-0.138-3.967,1.473-4.112,3.6c-0.138,2.129,1.472,3.967,3.6,4.111
			c0.087,0.006,0.172,0.008,0.258,0.008c2.032-0.004,3.715-1.579,3.853-3.606l0,0C1160.28-474.817,1158.669-476.656,1156.541-476.8z
			 M1156.148-470.886c-1.138-0.077-1.998-1.062-1.923-2.199c0.074-1.084,0.973-1.926,2.058-1.928c0.046,0,0.092,0,0.138,0
			c1.138,0.078,1.998,1.063,1.923,2.2C1158.268-471.675,1157.286-470.814,1156.148-470.886L1156.148-470.886z"/>
		<path id="패스_731" fill="#FFFFFF" d="M1187.544-476.8c-2.129-0.14-3.969,1.472-4.111,3.6c-0.07,1.023,0.271,2.031,0.949,2.801
			c0.673,0.772,1.627,1.244,2.65,1.31c0.088,0.005,0.175,0.009,0.262,0.009c0.936,0,1.838-0.34,2.539-0.957
			c0.773-0.674,1.245-1.629,1.311-2.651C1191.281-474.818,1189.671-476.656,1187.544-476.8z M1189.345-472.808
			c-0.035,0.547-0.287,1.056-0.701,1.415c-0.41,0.362-0.948,0.545-1.494,0.507c-0.547-0.035-1.057-0.287-1.418-0.699
			c-0.362-0.412-0.545-0.953-0.506-1.5c0.074-1.084,0.973-1.926,2.059-1.928c0.045,0,0.091,0,0.139,0
			c1.137,0.078,1.998,1.063,1.922,2.2V-472.808z"/>
		<rect id="사각형_1833" x="1165.175" y="-474.079" fill="#FFFFFF" width="13.229" height="1.801"/>
	</g>
</g>
<g>
	<path fill="#FFFFFF" d="M16.172,83.428h-2.309v3.597H12.26v-3.597h-2.213v3.597H8.456v-3.597H6.194v-1.278h9.978V83.428z
		 M7.176,78.864c0-1.493,1.627-2.461,3.983-2.461c2.345,0,3.983,0.968,3.983,2.461c0,1.505-1.639,2.461-3.983,2.461
		C8.803,81.325,7.176,80.369,7.176,78.864z M8.791,78.864c0,0.788,0.921,1.207,2.369,1.207c1.436,0,2.356-0.419,2.356-1.207
		c0-0.776-0.921-1.207-2.356-1.207C9.712,77.657,8.791,78.088,8.791,78.864z"/>
	<path fill="#FFFFFF" d="M27.147,81.708v1.23h-9.965v-1.23h4.188v-0.682h-2.943v-4.707h7.584v1.194h-6.017v0.574h5.766v1.146h-5.766
		v0.598h6.101v1.194h-3.146v0.682H27.147z M25.976,85.232c0,1.171-1.4,1.804-3.828,1.804c-2.417,0-3.816-0.633-3.816-1.804
		c0-1.183,1.399-1.805,3.816-1.805C24.575,83.428,25.976,84.05,25.976,85.232z M24.384,85.232c0-0.454-0.705-0.646-2.236-0.646
		c-1.52,0-2.226,0.191-2.226,0.646s0.706,0.657,2.226,0.657C23.679,85.89,24.384,85.687,24.384,85.232z"/>
	<path fill="#FFFFFF" d="M30.813,76.391h1.173L29.02,88.184h-1.173L30.813,76.391z"/>
	<path fill="#FFFFFF" d="M42.811,81.373v1.255H38.72v1.888h-1.615v-1.888h-4.271v-1.255H42.811z M33.851,78.518
		c0-1.386,1.591-2.282,3.96-2.282c2.38,0,3.96,0.896,3.96,2.282c0,1.397-1.58,2.282-3.96,2.282
		C35.441,80.8,33.851,79.915,33.851,78.518z M35.597,85.591h6.125v1.254h-7.728v-3.297h1.603V85.591z M35.562,78.518
		c0,0.681,0.873,1.027,2.249,1.027c1.399,0,2.261-0.347,2.261-1.027s-0.861-1.027-2.261-1.027
		C36.435,77.49,35.562,77.837,35.562,78.518z"/>
	<path fill="#FFFFFF" d="M53.787,81.277v1.255h-9.953v-1.255h4.175v-1.35h1.579v1.35H53.787z M52.675,80.585
		c-1.854-0.275-3.194-1.04-3.889-2.127c-0.693,1.075-2.033,1.852-3.876,2.127l-0.574-1.231c2.465-0.298,3.649-1.553,3.649-2.795
		v-0.323H49.6v0.323c0,1.278,1.161,2.497,3.649,2.795L52.675,80.585z M52.614,85.089c0,1.255-1.436,1.947-3.828,1.947
		s-3.816-0.692-3.816-1.947s1.424-1.959,3.816-1.959S52.614,83.834,52.614,85.089z M51.012,85.089c0-0.55-0.742-0.776-2.226-0.776
		s-2.225,0.227-2.225,0.776c0,0.538,0.741,0.776,2.225,0.776S51.012,85.627,51.012,85.089z"/>
</g>
</svg>
