<?xml version="1.0" encoding="utf-8"?>
<!-- Generator: Adobe Illustrator 16.0.0, SVG Export Plug-In . SVG Version: 6.00 Build 0)  -->
<!DOCTYPE svg PUBLIC "-//W3C//DTD SVG 1.1//EN" "http://www.w3.org/Graphics/SVG/1.1/DTD/svg11.dtd">
<svg version="1.1" id="Layer_1" xmlns="http://www.w3.org/2000/svg" xmlns:xlink="http://www.w3.org/1999/xlink" x="0px" y="0px"
	 width="100px" height="100px" viewBox="-20 0 100 100" enable-background="new -20 0 100 100" xml:space="preserve">
<g id="그룹_4960" transform="translate(-989 -1049)">
	<rect id="사각형_1842" x="989" y="1059" fill="none" width="60" height="60"/>
	<path id="패스_741" fill="#FFFFFF" d="M1044.84,1066.724h-32.45V1062h-13.272v4.724H994v9.9h5.118v30.146h-5.062v9h29.188v-9
		h-10.854v-30.146h12.2v5.399h6.301v4.646c-1.533,0.449-2.587,1.855-2.588,3.453c0,0.847,0.299,1.666,0.844,2.313
		c-2.549,1.051-4.215,3.534-4.219,6.291c0.004,3.757,3.049,6.802,6.805,6.806c3.756-0.007,6.797-3.051,6.801-6.806v-0.899h-1.801
		v0.899c-0.002,2.764-2.242,5.004-5.006,5.006c-2.763-0.003-5.002-2.242-5.004-5.006c0.005-2.761,2.243-4.997,5.004-5h0.9v-0.074
		c1.67-0.347,2.869-1.818,2.869-3.524c-0.001-1.685-1.169-3.143-2.813-3.511v-4.588h6.748v-5.4h5.4L1044.84,1066.724z
		 M1033.705,1090.124c0,0.994-0.807,1.8-1.801,1.8c-0.993,0-1.799-0.806-1.799-1.8s0.806-1.8,1.799-1.8l0,0
		c0.993,0,1.799,0.803,1.801,1.796V1090.124z M1009.993,1074.597l-9.076,9.076v-18.151L1009.993,1074.597z M1000.917,1087.118
		l9.076,9.075l-9.076,9.076V1087.118z M1001.74,1085.396l8.85-8.852v17.7L1001.74,1085.396z M1010.59,1072.65l-8.85-8.851h8.85
		V1072.65z M995.799,1074.822v-6.3h3.319v6.3H995.799z M1021.445,1108.566v5.399h-25.589v-5.399H1021.445L1021.445,1108.566z
		 M1001.965,1106.766l8.625-8.625v8.625H1001.965z M1037.643,1080.221h-11.248v-3.601h11.248V1080.221z M1043.042,1074.82h-30.652
		v-6.3h30.651L1043.042,1074.82z"/>
</g>
<g>
	<path fill="#FFFFFF" d="M25.339,76.856c0,2.976-1.842,5.149-5.048,6.165l-0.646-1.266c2.297-0.717,3.745-2.031,4.007-3.645h-3.433
		v-1.255H25.339z M29,85.591v1.254h-7.477v-3.56h1.579v2.306H29z M27.146,79.234v-3.202h1.579v8.041h-1.579v-3.561h-1.902v-1.278
		H27.146z"/>
	<path fill="#FFFFFF" d="M36.291,81.492c-1.16-0.37-1.974-1.099-2.439-2.019c-0.491,1.027-1.353,1.84-2.608,2.234l-0.813-1.231
		c1.83-0.549,2.596-1.899,2.596-3.297v-0.789h1.592v0.789c0,1.302,0.753,2.58,2.476,3.106L36.291,81.492z M40.036,85.687v1.23
		h-7.561v-3.011h5.694v-0.609h-5.707V82.09h7.262v2.951H34.03v0.646H40.036z M38.146,78.9h-2.01v-1.255h2.01v-1.613h1.579v5.592
		h-1.579V78.9z"/>
</g>
</svg>
