<?xml version="1.0" encoding="utf-8"?>
<!-- Generator: Adobe Illustrator 16.0.0, SVG Export Plug-In . SVG Version: 6.00 Build 0)  -->
<!DOCTYPE svg PUBLIC "-//W3C//DTD SVG 1.1//EN" "http://www.w3.org/Graphics/SVG/1.1/DTD/svg11.dtd">
<svg version="1.1" id="Layer_1" xmlns="http://www.w3.org/2000/svg" xmlns:xlink="http://www.w3.org/1999/xlink" x="0px" y="0px"
	 width="100px" height="100px" viewBox="0 0 100 100" enable-background="new 0 0 100 100" xml:space="preserve">
<g id="그룹_4956" transform="translate(-517 -1049)">
	<rect id="사각형_1848" x="537" y="1059" fill="none" width="60" height="60"/>
	<g id="그룹_4949" transform="translate(298.405 1569.575)">
		<path id="패스_709" fill="#FFFFFF" d="M243.6-463.033v9h50.841v-9H243.6z M292.641-455.833h-47.247v-5.4h47.242L292.641-455.833
			z"/>
		<path id="패스_710" fill="#FFFFFF" d="M257.542-466.18v-18h-9v18H257.542z M250.342-482.38h5.4v14.399h-5.4V-482.38z"/>
		<path id="패스_711" fill="#FFFFFF" d="M289.486-466.18v-18h-9v18H289.486z M282.286-482.38h5.398v14.399h-5.398V-482.38z"/>
		<path id="패스_712" fill="#FFFFFF" d="M273.288-466.18v-18h-9v18H273.288z M266.089-482.38h5.4v14.399h-5.4V-482.38z"/>
		<rect id="사각형_1832" x="243.595" y="-489.578" fill="#FFFFFF" width="50.841" height="1.8"/>
		<path id="패스_713" fill="#FFFFFF" d="M269.015-500.826c4.969,0.004,8.996,4.031,9,9h1.801
			c-0.008-5.612-4.309-10.285-9.9-10.757v-4.99h-1.799v4.99c-5.592,0.472-9.893,5.145-9.9,10.757h1.8
			C260.019-496.795,264.046-500.822,269.015-500.826z"/>
	</g>
</g>
<g>
	<path fill="#FFFFFF" d="M38.183,80.956v1.242H28.051v-1.242h3.752v-1.924h1.613v1.924H38.183z M37.046,84.971
		c0,1.278-1.564,2.066-3.997,2.066c-2.42,0-3.984-0.788-3.984-2.066c0-1.291,1.564-2.078,3.984-2.078
		C35.482,82.893,37.046,83.68,37.046,84.971z M35.079,80.215c0.257-0.979,0.293-1.72,0.293-2.449h-6.184v-1.242h7.798v0.908
		c0,0.873,0,1.805-0.318,2.938L35.079,80.215z M35.445,84.971c0-0.598-0.868-0.896-2.396-0.896c-1.516,0-2.383,0.299-2.383,0.896
		c0,0.586,0.868,0.885,2.383,0.885C34.578,85.854,35.445,85.557,35.445,84.971z"/>
	<path fill="#FFFFFF" d="M49.433,80.956v1.242H39.301v-1.242h3.752v-1.924h1.613v1.924H49.433z M48.296,84.971
		c0,1.278-1.564,2.066-3.997,2.066c-2.42,0-3.984-0.788-3.984-2.066c0-1.291,1.564-2.078,3.984-2.078
		C46.732,82.893,48.296,83.68,48.296,84.971z M46.329,80.215c0.257-0.979,0.293-1.72,0.293-2.449h-6.185v-1.242h7.798v0.908
		c0,0.873,0,1.805-0.318,2.938L46.329,80.215z M46.695,84.971c0-0.598-0.868-0.896-2.396-0.896c-1.516,0-2.383,0.299-2.383,0.896
		c0,0.586,0.868,0.885,2.383,0.885C45.828,85.854,46.695,85.557,46.695,84.971z"/>
	<path fill="#FFFFFF" d="M56.552,77.169c0,3.369-1.161,6.117-5.157,8.005l-0.844-1.242c2.872-1.351,4.119-3.07,4.352-5.509H51.15
		v-1.254H56.552z M59.9,76.021v11.004h-1.625V76.021H59.9z"/>
	<path fill="#FFFFFF" d="M68.633,82.318c-2.322,0.418-4.938,0.466-6.867,0.478l-0.147-1.255c0.624,0,1.319,0,2.054-0.012v-2.139
		h1.577v2.078c1.112-0.048,2.235-0.132,3.287-0.273L68.633,82.318z M66.213,80.573c0.184-1.027,0.232-1.827,0.245-2.484h-4.192
		v-1.255h5.781v0.682c0,0.765,0,1.853-0.257,3.237L66.213,80.573z M64.869,85.592h6.244v1.254h-7.857v-3.31h1.613V85.592z
		 M72.104,79.379v1.303H70.76v3.584h-1.613v-8.244h1.613v3.357H72.104z"/>
</g>
</svg>
