<?xml version="1.0" encoding="utf-8"?>
<!-- Generator: Adobe Illustrator 16.0.0, SVG Export Plug-In . SVG Version: 6.00 Build 0)  -->
<!DOCTYPE svg PUBLIC "-//W3C//DTD SVG 1.1//EN" "http://www.w3.org/Graphics/SVG/1.1/DTD/svg11.dtd">
<svg version="1.1" id="Layer_1" xmlns="http://www.w3.org/2000/svg" xmlns:xlink="http://www.w3.org/1999/xlink" x="0px" y="0px"
	 width="100px" height="100px" viewBox="-20 0 100 100" enable-background="new -20 0 100 100" xml:space="preserve">
<g id="그룹_4962" transform="translate(-1225 -1049)">
	<rect id="사각형_1847" x="1225" y="1059" fill="none" width="60" height="60"/>
	<g id="그룹_4954" transform="translate(-70.341 1570.356)">
		<path id="패스_732" fill="#FFFFFF" d="M1350.349-501.817c-2.852-2.91-6.758-4.547-10.833-4.539
			c-4.069-0.008-7.97,1.624-10.819,4.527l-3.11,3.028l-3.1-3.016c-2.853-2.91-6.758-4.546-10.833-4.539
			c-4.075-0.007-7.98,1.629-10.833,4.539c-3.306,3.342-4.919,8.003-4.386,12.674c0.052,0.494,0.495,0.853,0.989,0.801
			c0.001,0,0.002,0,0.003,0c0.495-0.053,0.853-0.496,0.8-0.99c0-0.001,0-0.002,0-0.004c-0.473-4.131,0.954-8.254,3.878-11.21
			c2.516-2.565,5.959-4.007,9.552-4c3.6-0.005,7.048,1.443,9.565,4.016l3.737,3.639c0.35,0.341,0.907,0.341,1.256,0l3.75-3.651
			c2.516-2.565,5.96-4.007,9.552-4c3.594-0.007,7.037,1.435,9.553,4c5.275,5.375,5.275,13.985,0,19.36l-23.482,23.759
			l-19.745-19.978c-0.349-0.354-0.919-0.356-1.273-0.007l0,0c-0.353,0.35-0.356,0.918-0.008,1.271l20.386,20.625
			c0.169,0.172,0.399,0.268,0.64,0.269c0.241-0.001,0.471-0.097,0.641-0.269l24.123-24.406
			C1356.322-485.997,1356.32-495.739,1350.349-501.817z"/>
		<path id="패스_733" fill="#FFFFFF" d="M1310.972-483.461l1.787-2.086l4.811,10.424c0.149,0.336,0.49,0.544,0.856,0.522
			c0.365-0.016,0.684-0.249,0.808-0.593l4.948-13.7l5.5,17.271c0.106,0.331,0.392,0.572,0.735,0.619
			c0.041,0.006,0.081,0.008,0.121,0.008c0.305,0,0.588-0.153,0.754-0.408l6.75-10.348c0.271-0.416,0.154-0.975-0.262-1.246
			c-0.416-0.271-0.975-0.153-1.246,0.263l-5.713,8.76l-5.724-17.989c-0.117-0.368-0.455-0.62-0.84-0.627
			c-0.385-0.008-0.733,0.231-0.864,0.594l-5.1,14.135l-4.48-9.707c-0.128-0.278-0.39-0.474-0.694-0.515
			c-0.303-0.043-0.607,0.072-0.807,0.306l-2.43,2.835h-9.034c-0.497,0-0.9,0.402-0.9,0.9l0,0c0,0.496,0.403,0.899,0.9,0.899l0,0
			h9.448C1310.557-483.147,1310.803-483.263,1310.972-483.461z"/>
	</g>
</g>
<g>
	<path fill="#FFFFFF" d="M19.562,83.548c1.938,0,4.642-0.013,6.962-0.358l0.096,1.135c-2.368,0.478-4.952,0.502-6.854,0.502
		L19.562,83.548z M26.093,79.474c0,1.589-1.315,2.712-3.038,2.712s-3.027-1.123-3.027-2.712c0-1.577,1.304-2.712,3.027-2.712
		S26.093,77.896,26.093,79.474z M21.559,79.474c0,0.86,0.646,1.362,1.496,1.362c0.849,0,1.495-0.502,1.495-1.362
		s-0.646-1.362-1.495-1.362C22.205,78.111,21.559,78.613,21.559,79.474z M28.701,76.021v11.04h-1.579v-11.04H28.701z"/>
	<path fill="#FFFFFF" d="M40.49,84.539v1.29h-9.988v-1.29h2.535v-1.673h-1.375v-3.703h6.148v-1.171h-6.16v-1.255h7.716v3.656h-6.138
		v1.207h6.389v1.266h-1.543v1.673H40.49z M34.593,84.539h1.926v-1.673h-1.926V84.539z"/>
</g>
</svg>
